<svg width="22" height="22" viewBox="0 0 22 22" fill="none" xmlns="http://www.w3.org/2000/svg">
<g clip-path="url(#clip0_7588_11)">
<path d="M22 9.44867C22 4.52617 17.0655 0.521484 11 0.521484C4.93453 0.521484 0 4.52652 0 9.44867C0 13.8614 3.91325 17.557 9.19944 18.2555C9.55762 18.3329 10.0451 18.492 10.1688 18.798C10.2795 19.0764 10.241 19.5116 10.2042 19.7928L10.0471 20.7347C9.999 21.0131 9.82609 21.8223 11 21.3276C12.1739 20.833 17.3346 17.5973 19.6429 14.9408H19.6426C21.2369 13.1931 22 11.4187 22 9.44867Z" fill="#999999"/>
<path d="M8.76505 7.07022H7.99333C7.87508 7.07022 7.77917 7.16647 7.77917 7.28438V12.0773C7.77917 12.1054 7.78472 12.1332 7.7955 12.1591C7.80627 12.185 7.82206 12.2085 7.84196 12.2284C7.86186 12.2482 7.88548 12.2638 7.91146 12.2745C7.93743 12.2851 7.96526 12.2905 7.99333 12.2904H8.76505C8.79312 12.2905 8.82095 12.2851 8.84693 12.2745C8.8729 12.2638 8.89652 12.2482 8.91642 12.2284C8.93632 12.2085 8.95211 12.185 8.96289 12.1591C8.97366 12.1332 8.97921 12.1054 8.97921 12.0773V7.28747C8.97921 7.16957 8.88296 7.07332 8.76505 7.07332M14.076 7.06988H13.3046C13.186 7.06988 13.0901 7.16613 13.0901 7.28404V10.1317L10.8901 7.1651C10.8853 7.15754 10.8798 7.15032 10.8736 7.14344L10.8722 7.14207C10.8682 7.13742 10.8638 7.13306 10.8592 7.129L10.844 7.11525C10.842 7.11388 10.8406 7.1125 10.8386 7.11113L10.8275 7.10357L10.8207 7.09944L10.8093 7.09257C10.8073 7.09188 10.8045 7.0905 10.8025 7.08913C10.7983 7.08707 10.7946 7.085 10.7901 7.08363C10.7856 7.08225 10.7853 7.08157 10.7832 7.08157C10.7791 7.0795 10.7746 7.07882 10.7705 7.07744L10.7629 7.07538C10.7588 7.07469 10.755 7.07332 10.7509 7.07263L10.742 7.07125C10.7392 7.07057 10.7344 7.06988 10.7306 7.06988L10.7196 7.06919C10.7169 7.06919 10.7148 7.06885 10.7121 7.06885H9.94067C9.82242 7.06885 9.72652 7.1651 9.72652 7.283V12.0759C9.72652 12.104 9.73207 12.1318 9.74284 12.1577C9.75361 12.1836 9.76941 12.2072 9.78931 12.227C9.80921 12.2468 9.83282 12.2625 9.8588 12.2731C9.88478 12.2838 9.9126 12.2892 9.94067 12.289H10.7121C10.8303 12.289 10.9265 12.1935 10.9265 12.0759V9.22966L13.1255 12.1997C13.1404 12.2204 13.1588 12.2383 13.1798 12.2526C13.186 12.2574 13.1908 12.2602 13.1953 12.2629C13.1974 12.2643 13.1994 12.2657 13.2015 12.2663C13.2035 12.267 13.2084 12.2698 13.2118 12.2712C13.2152 12.2725 13.2187 12.2739 13.2221 12.276L13.2427 12.2835C13.2616 12.2887 13.281 12.2912 13.3005 12.2911H14.0719C14.0999 12.2912 14.1278 12.2858 14.1537 12.2752C14.1797 12.2645 14.2033 12.2488 14.2232 12.229C14.2431 12.2092 14.2589 12.1857 14.2697 12.1598C14.2805 12.1338 14.286 12.106 14.286 12.078V7.28747C14.286 7.16957 14.1898 7.07332 14.0719 7.07332" fill="#0D0E11"/>
<path d="M6.90496 11.0906H4.80809V7.2874C4.80809 7.16915 4.71184 7.07324 4.59393 7.07324H3.82255C3.7043 7.07324 3.6084 7.16949 3.6084 7.2874V12.08C3.60837 12.1352 3.62982 12.1884 3.66821 12.2281C3.67234 12.2322 3.67302 12.2336 3.67371 12.2343C3.71255 12.2711 3.76446 12.2941 3.82152 12.2941H6.90427C7.02252 12.2941 7.11843 12.1979 7.11843 12.08V11.3082C7.11843 11.19 7.02287 11.0941 6.90427 11.0941M18.3367 8.27052C18.455 8.27052 18.5509 8.17427 18.5509 8.05637V7.2874C18.5509 7.16915 18.4553 7.07324 18.3367 7.07324H15.254C15.1962 7.07324 15.144 7.09627 15.1055 7.13374C15.1013 7.13718 15.1 7.13855 15.0993 7.13993C15.0625 7.1743 15.0398 7.22999 15.0398 7.28774V12.0806C15.0398 12.1359 15.0612 12.189 15.0996 12.2288L15.1051 12.2343C15.1449 12.2727 15.198 12.2941 15.2533 12.2941H18.336C18.4543 12.2941 18.5502 12.1979 18.5502 12.08V11.3079C18.5502 11.1896 18.4546 11.0937 18.336 11.0937H16.2398V10.2835H18.336C18.3642 10.2837 18.3921 10.2782 18.4181 10.2675C18.4442 10.2568 18.4678 10.241 18.4878 10.2211C18.5077 10.2012 18.5234 10.1775 18.5342 10.1515C18.5449 10.1254 18.5503 10.0975 18.5502 10.0694V9.2949C18.5502 9.17665 18.4546 9.0804 18.336 9.0804H16.2398V8.27052H18.336H18.3367Z" fill="#0D0E11"/>
</g>
<defs>
<clipPath id="clip0_7588_11">
<rect width="22" height="22" fill="white"/>
</clipPath>
</defs>
</svg>
