<svg width="22" height="22" viewBox="0 0 22 22" fill="none" xmlns="http://www.w3.org/2000/svg">
<g clip-path="url(#clip0_7588_38)">
<path d="M22 9.44867C22 4.52617 17.0655 0.521484 11 0.521484C4.93453 0.521484 0 4.52652 0 9.44867C0 13.8614 3.91325 17.557 9.19944 18.2555C9.55762 18.3329 10.0451 18.492 10.1688 18.798C10.2795 19.0764 10.241 19.5116 10.2042 19.7928L10.0471 20.7347C9.999 21.0131 9.82609 21.8223 11 21.3276C12.1739 20.833 17.3346 17.5973 19.6429 14.9408H19.6426C21.2369 13.1931 22 11.4187 22 9.44867Z" fill="#1D1D1D"/>
<path d="M8.76493 7.07022H7.99321C7.87496 7.07022 7.77905 7.16647 7.77905 7.28438V12.0773C7.77905 12.1054 7.7846 12.1332 7.79537 12.1591C7.80615 12.185 7.82194 12.2085 7.84184 12.2284C7.86174 12.2482 7.88536 12.2638 7.91133 12.2745C7.93731 12.2851 7.96513 12.2905 7.99321 12.2904H8.76493C8.793 12.2905 8.82083 12.2851 8.8468 12.2745C8.87278 12.2638 8.8964 12.2482 8.9163 12.2284C8.9362 12.2085 8.95199 12.185 8.96276 12.1591C8.97354 12.1332 8.97908 12.1054 8.97908 12.0773V7.28747C8.97908 7.16957 8.88283 7.07332 8.76493 7.07332M14.0759 7.06988H13.3045C13.1859 7.06988 13.09 7.16613 13.09 7.28404V10.1317L10.89 7.1651C10.8852 7.15754 10.8797 7.15032 10.8735 7.14344L10.8721 7.14207C10.8681 7.13742 10.8637 7.13306 10.8591 7.129L10.8439 7.11525C10.8419 7.11388 10.8405 7.1125 10.8384 7.11113L10.8274 7.10357L10.8206 7.09944L10.8092 7.09257C10.8071 7.09188 10.8044 7.0905 10.8023 7.08913C10.7982 7.08707 10.7944 7.085 10.79 7.08363C10.7855 7.08225 10.7851 7.08157 10.7831 7.08157C10.779 7.0795 10.7745 7.07882 10.7704 7.07744L10.7628 7.07538C10.7587 7.07469 10.7549 7.07332 10.7508 7.07263L10.7418 7.07125C10.7391 7.07057 10.7343 7.06988 10.7305 7.06988L10.7195 7.06919C10.7167 7.06919 10.7147 7.06885 10.7119 7.06885H9.94055C9.8223 7.06885 9.7264 7.1651 9.7264 7.283V12.0759C9.7264 12.104 9.73194 12.1318 9.74272 12.1577C9.75349 12.1836 9.76928 12.2072 9.78918 12.227C9.80908 12.2468 9.8327 12.2625 9.85868 12.2731C9.88465 12.2838 9.91248 12.2892 9.94055 12.289H10.7119C10.8302 12.289 10.9264 12.1935 10.9264 12.0759V9.22966L13.1254 12.1997C13.1402 12.2204 13.1586 12.2383 13.1797 12.2526C13.1859 12.2574 13.1907 12.2602 13.1952 12.2629C13.1972 12.2643 13.1993 12.2657 13.2014 12.2663C13.2034 12.267 13.2082 12.2698 13.2117 12.2712C13.2151 12.2725 13.2186 12.2739 13.222 12.276L13.2426 12.2835C13.2614 12.2887 13.2809 12.2912 13.3004 12.2911H14.0717C14.0998 12.2912 14.1276 12.2858 14.1536 12.2752C14.1796 12.2645 14.2032 12.2488 14.2231 12.229C14.243 12.2092 14.2588 12.1857 14.2696 12.1598C14.2804 12.1338 14.2859 12.106 14.2859 12.078V7.28747C14.2859 7.16957 14.1896 7.07332 14.0717 7.07332" fill="#F2F3F5"/>
<path d="M6.9049 11.0906H4.80803V7.2874C4.80803 7.16915 4.71178 7.07324 4.59387 7.07324H3.82249C3.70424 7.07324 3.60834 7.16949 3.60834 7.2874V12.08C3.60831 12.1352 3.62975 12.1884 3.66815 12.2281C3.67227 12.2322 3.67296 12.2336 3.67365 12.2343C3.71249 12.2711 3.7644 12.2941 3.82146 12.2941H6.90421C7.02246 12.2941 7.11837 12.1979 7.11837 12.08V11.3082C7.11837 11.19 7.02281 11.0941 6.90421 11.0941M18.3366 8.27052C18.4549 8.27052 18.5508 8.17427 18.5508 8.05637V7.2874C18.5508 7.16915 18.4552 7.07324 18.3366 7.07324H15.2539C15.1962 7.07324 15.1439 7.09627 15.1054 7.13374C15.1013 7.13718 15.0999 7.13855 15.0992 7.13993C15.0624 7.1743 15.0397 7.22999 15.0397 7.28774V12.0806C15.0397 12.1359 15.0612 12.189 15.0996 12.2288L15.1051 12.2343C15.1448 12.2727 15.1979 12.2941 15.2532 12.2941H18.336C18.4542 12.2941 18.5501 12.1979 18.5501 12.08V11.3079C18.5501 11.1896 18.4546 11.0937 18.336 11.0937H16.2398V10.2835H18.336C18.3641 10.2837 18.392 10.2782 18.4181 10.2675C18.4441 10.2568 18.4678 10.241 18.4877 10.2211C18.5076 10.2012 18.5234 10.1775 18.5341 10.1515C18.5448 10.1254 18.5503 10.0975 18.5501 10.0694V9.2949C18.5501 9.17665 18.4546 9.0804 18.336 9.0804H16.2398V8.27052H18.336H18.3366Z" fill="#F2F3F5"/>
</g>
<defs>
<clipPath id="clip0_7588_38">
<rect width="22" height="22" fill="white"/>
</clipPath>
</defs>
</svg>
